<svg class="arch-container" xmlns="http://www.w3.org/2000/svg" viewBox="1 1 890 835"><defs/> <path class="arch-background" fill="#0167b2" stroke="#000" stroke-miterlimit="10" d="M.5.5h1170v1170H.5z"/><g class="arch-shape" opacity=".15"><path d="M469.63 483.66l-9.53 48H359.79a225 225 0 0117.13-86.38h.06l46.31 19.18zM469.63 483.63v.03l-46.34-19.22 46.34 19.19zM485.19 556.7l-23.24 46.44-1.85 3.71v258.22H359.79V606.85l-1.85-3.71-23.21-46.44h150.46zM836.27 556.7l-23.23 46.44-1.86 3.71v258.22h-100.3V606.85l-1.85-3.71-23.24-46.44h150.48z" fill="#fff" stroke="#000" stroke-miterlimit="10"/><rect x="349.04" y="603.14" width="125.39" height="7.41" rx="1" fill="#fff"/><rect x="349.04" y="603.14" width="125.39" height="7.41" rx="1" fill="none" stroke="#000" stroke-miterlimit="10"/><rect x="349.04" y="615.68" width="125.39" height="7.41" rx="1" fill="#fff"/><rect x="349.04" y="615.68" width="125.39" height="7.41" rx="1" fill="none" stroke="#000" stroke-miterlimit="10"/><rect x="700.12" y="603.14" width="125.39" height="7.41" rx="1" fill="#fff"/><rect x="700.12" y="603.14" width="125.39" height="7.41" rx="1" fill="none" stroke="#000" stroke-miterlimit="10"/><rect x="700.12" y="615.68" width="125.39" height="7.41" rx="1" fill="#fff"/><rect x="700.12" y="615.68" width="125.39" height="7.41" rx="1" fill="none" stroke="#000" stroke-miterlimit="10"/><rect x="347.26" y="757.31" width="125.39" height="50.15" rx="1" fill="#fff"/><rect x="347.26" y="757.31" width="125.39" height="50.15" rx="1" fill="none" stroke="#000" stroke-miterlimit="10"/><rect x="698.34" y="757.31" width="125.39" height="50.15" rx="1" fill="#fff"/><rect x="698.34" y="757.31" width="125.39" height="50.15" rx="1" fill="none" stroke="#000" stroke-miterlimit="10"/><path fill="#fff" stroke="#000" stroke-miterlimit="10" d="M347.27 531.62h125.38v25.07H347.27zM698.34 531.62h125.38v25.07H698.34zM425.89 372.03l-.08.12M425.98 371.97l-.09.06M745.08 372.03c-17.69 17.66-53.24 53.27-70.93 70.93-.2-.25-40.46-27-40.65-27.21 9.56-23.12 28.79-69.54 38.35-92.65a225.09 225.09 0 0173.23 48.93zM461.38 407.51v-.02M469.63 483.64v-.03M496.84 442.96h0l-27.17 40.57h0l-46.34-19.19-46.31-19.18h-.06a225.43 225.43 0 0148.89-73.09l.1-.1zM496.84 442.98v-.02"/><path d="M537.5 415.75l-40.62 27.19h0l-70.93-70.93.07-.08a225.86 225.86 0 0173.14-48.89h0l19.18 46.3z" fill="#fff" stroke="#000" stroke-miterlimit="10"/><path fill="#fff" stroke="#000" stroke-miterlimit="10" d="M585.49 305.93v100.31l-47.95 9.51h-.04l-19.2-46.35-19.18-46.3v-.02l-7.11-17.15h93.48zM585.49 305.93v100.31l47.94 9.51h.05l19.19-46.35 19.18-46.3v-.02l7.11-17.15h-93.47zM794.01 445.28h0l-46.3 19.18-46.35 19.2h0l-27.21-40.65 35.47-35.51 35.46-35.46a225.4 225.4 0 0148.95 73.23z"/><path d="M811.18 531.62H710.89l-9.53-48 46.35-19.2 46.3-19.18h0a224.26 224.26 0 0117.17 86.38z" fill="#fff" stroke="#000" stroke-miterlimit="10"/></g></svg>